<?xml version="1.0" encoding="UTF-8" standalone="no"?>
<!DOCTYPE svg PUBLIC "-//W3C//DTD SVG 1.1//EN"
 "http://www.w3.org/Graphics/SVG/1.1/DTD/svg11.dtd">
<!-- Generated by graphviz version 2.26.3 (20100126.1600)
 -->
<!-- Title: test Pages: 1 -->
<svg width="1233pt" height="638pt"
 viewBox="0.00 0.00 1233.08 638.00" xmlns="http://www.w3.org/2000/svg" xmlns:xlink="http://www.w3.org/1999/xlink">
<g id="graph1" class="graph" transform="scale(1 1) rotate(0) translate(4 634)">
<title>test</title>
<polygon fill="white" stroke="white" points="-4,5 -4,-634 1230.08,-634 1230.08,5 -4,5"/>
<!-- sequence -->
<g id="node1" class="node"><title>sequence</title>
<a xlink:href="sequence.html" xlink:title="sequence">
<ellipse fill="none" stroke="black" stroke-width="2" cx="657" cy="-611" rx="56.7776" ry="18.3848"/>
<text text-anchor="middle" x="657" y="-607.4" font-family="Times Roman,serif" font-size="14.00">sequence</text>
</a>
</g>
<!-- void -->
<g id="node3" class="node"><title>void</title>
<a xlink:href="void.html" xlink:title="void">
<ellipse fill="none" stroke="black" stroke-width="2" cx="133" cy="-537" rx="31.8198" ry="18.3848"/>
<text text-anchor="middle" x="133" y="-533.4" font-family="Times Roman,serif" font-size="14.00">void</text>
</a>
</g>
<!-- sequence&#45;&gt;void -->
<g id="edge114" class="edge"><title>sequence&#45;&gt;void</title>
<path fill="none" stroke="black" stroke-dasharray="1,5" d="M604.503,-603.652C529.449,-593.138 387.151,-573.174 266,-556 235.215,-551.636 200.428,-546.665 174.154,-542.902"/>
<polygon fill="black" stroke="black" points="174.565,-539.426 164.17,-541.472 173.572,-546.355 174.565,-539.426"/>
</g>
<!-- size -->
<g id="node7" class="node"><title>size</title>
<a xlink:href="size.html" xlink:title="size">
<ellipse fill="none" stroke="black" stroke-width="2" cx="1071" cy="-167" rx="31.1127" ry="18.3848"/>
<text text-anchor="middle" x="1071" y="-163.4" font-family="Times Roman,serif" font-size="14.00">size</text>
</a>
</g>
<!-- sequence&#45;&gt;size -->
<g id="edge112" class="edge"><title>sequence&#45;&gt;size</title>
<path fill="none" stroke="black" stroke-dasharray="1,5" d="M680.376,-594.124C743.684,-547.414 920.822,-409.936 1027,-260 1041.42,-239.643 1053.2,-213.819 1060.93,-194.552"/>
<polygon fill="black" stroke="black" points="1064.23,-195.726 1064.6,-185.138 1057.71,-193.186 1064.23,-195.726"/>
</g>
<!-- identifier -->
<g id="node9" class="node"><title>identifier</title>
<a xlink:href="identifier.html" xlink:title="identifier">
<ellipse fill="none" stroke="black" stroke-width="2" cx="600" cy="-19" rx="55.1543" ry="18.3848"/>
<text text-anchor="middle" x="600" y="-15.4" font-family="Times Roman,serif" font-size="14.00">identifier</text>
</a>
</g>
<!-- sequence&#45;&gt;identifier -->
<g id="edge106" class="edge"><title>sequence&#45;&gt;identifier</title>
<path fill="none" stroke="black" stroke-dasharray="1,5" d="M711.841,-605.688C849.845,-592.292 1200.73,-558.052 1203,-556 1234.3,-527.715 1222,-505.187 1222,-463 1222,-463 1222,-463 1222,-167 1222,-53.4283 824.573,-26.8576 665.08,-20.7672"/>
<polygon fill="black" stroke="black" points="665.047,-17.2637 654.925,-20.3949 664.791,-24.259 665.047,-17.2637"/>
</g>
<!-- prohibition -->
<g id="node12" class="node"><title>prohibition</title>
<a xlink:href="prohibition.html" xlink:title="prohibition">
<ellipse fill="none" stroke="black" stroke-width="2" cx="791" cy="-315" rx="63.1385" ry="18.3848"/>
<text text-anchor="middle" x="791" y="-311.4" font-family="Times Roman,serif" font-size="14.00">prohibition</text>
</a>
</g>
<!-- sequence&#45;&gt;prohibition -->
<g id="edge108" class="edge"><title>sequence&#45;&gt;prohibition</title>
<path fill="none" stroke="black" stroke-dasharray="1,5" d="M675.786,-593.025C685.543,-582.886 697.053,-569.558 705,-556 746.681,-484.887 773.12,-390.255 784.515,-343.554"/>
<polygon fill="black" stroke="black" points="787.986,-344.087 786.904,-333.547 781.178,-342.461 787.986,-344.087"/>
</g>
<!-- container -->
<g id="node15" class="node"><title>container</title>
<a xlink:href="container.html" xlink:title="container">
<ellipse fill="none" stroke="black" stroke-width="2" cx="929" cy="-241" rx="57.9828" ry="18.3848"/>
<text text-anchor="middle" x="929" y="-237.4" font-family="Times Roman,serif" font-size="14.00">container</text>
</a>
</g>
<!-- sequence&#45;&gt;container -->
<g id="edge102" class="edge"><title>sequence&#45;&gt;container</title>
<path fill="none" stroke="black" stroke-width="2" d="M702.705,-599.934C790.911,-577.24 976,-522.526 976,-463 976,-463 976,-463 976,-389 976,-345.402 957.244,-297.826 943.429,-268.696"/>
<polygon fill="black" stroke="black" points="946.5,-267.007 938.967,-259.556 940.209,-270.078 946.5,-267.007"/>
</g>
<!-- separator -->
<g id="node17" class="node"><title>separator</title>
<a xlink:href="separator.html" xlink:title="separator">
<ellipse fill="none" stroke="black" stroke-width="2" cx="200" cy="-389" rx="58.1882" ry="18.3848"/>
<text text-anchor="middle" x="200" y="-385.4" font-family="Times Roman,serif" font-size="14.00">separator</text>
</a>
</g>
<!-- sequence&#45;&gt;separator -->
<g id="edge110" class="edge"><title>sequence&#45;&gt;separator</title>
<path fill="none" stroke="black" stroke-dasharray="1,5" d="M603.783,-604.103C560.26,-596.549 498.45,-581.908 450,-556 382.748,-520.038 384.732,-484.322 320,-444 296.493,-429.358 268.407,-416.869 245.242,-407.51"/>
<polygon fill="black" stroke="black" points="246.229,-404.136 235.643,-403.694 243.643,-410.641 246.229,-404.136"/>
</g>
<!-- graph -->
<g id="node19" class="node"><title>graph</title>
<a xlink:href="graph.html" xlink:title="graph">
<ellipse fill="none" stroke="black" stroke-width="2" cx="657" cy="-537" rx="39.0967" ry="18.3848"/>
<text text-anchor="middle" x="657" y="-533.4" font-family="Times Roman,serif" font-size="14.00">graph</text>
</a>
</g>
<!-- sequence&#45;&gt;graph -->
<g id="edge104" class="edge"><title>sequence&#45;&gt;graph</title>
<path fill="none" stroke="black" stroke-dasharray="1,5" d="M657,-592.327C657,-584.264 657,-574.648 657,-565.711"/>
<polygon fill="black" stroke="black" points="660.5,-565.667 657,-555.667 653.5,-565.667 660.5,-565.667"/>
</g>
<!-- embedding -->
<g id="node2" class="node"><title>embedding</title>
<a xlink:href="embedding.html" xlink:title="embedding">
<ellipse fill="none" stroke="black" stroke-width="2" cx="657" cy="-463" rx="65.0538" ry="18.3848"/>
<text text-anchor="middle" x="657" y="-459.4" font-family="Times Roman,serif" font-size="14.00">embedding</text>
</a>
</g>
<!-- schema -->
<g id="node5" class="node"><title>schema</title>
<a xlink:href="schema.html" xlink:title="schema">
<ellipse fill="none" stroke="black" stroke-width="2" cx="542" cy="-241" rx="48.0833" ry="18.3848"/>
<text text-anchor="middle" x="542" y="-237.4" font-family="Times Roman,serif" font-size="14.00">schema</text>
</a>
</g>
<!-- embedding&#45;&gt;schema -->
<g id="edge20" class="edge"><title>embedding&#45;&gt;schema</title>
<path fill="none" stroke="black" stroke-dasharray="1,5" d="M647.393,-444.454C627.133,-405.344 579.946,-314.252 556.193,-268.4"/>
<polygon fill="black" stroke="black" points="559.206,-266.606 551.499,-259.337 552.991,-269.826 559.206,-266.606"/>
</g>
<!-- embedding&#45;&gt;separator -->
<g id="edge22" class="edge"><title>embedding&#45;&gt;separator</title>
<path fill="none" stroke="black" stroke-dasharray="1,5" d="M599.158,-454.366C512.325,-440.765 349.268,-414.382 260.763,-399.634"/>
<polygon fill="black" stroke="black" points="261.311,-396.177 250.871,-397.982 260.158,-403.081 261.311,-396.177"/>
</g>
<!-- void&#45;&gt;embedding -->
<g id="edge122" class="edge"><title>void&#45;&gt;embedding</title>
<path fill="none" stroke="black" stroke-dasharray="1,5" d="M164.209,-532.593C246.978,-520.904 473.577,-488.903 588.388,-472.689"/>
<polygon fill="black" stroke="black" points="589.059,-476.13 598.471,-471.266 588.08,-469.198 589.059,-476.13"/>
</g>
<!-- void&#45;&gt;schema -->
<g id="edge124" class="edge"><title>void&#45;&gt;schema</title>
<path fill="none" stroke="black" stroke-dasharray="1,5" d="M126.667,-518.806C116.373,-485.64 100.257,-414.66 133,-370 175.508,-312.02 386.632,-268.107 487.785,-250.032"/>
<polygon fill="black" stroke="black" points="488.568,-253.448 497.807,-248.261 487.35,-246.554 488.568,-253.448"/>
</g>
<!-- derivation -->
<g id="node14" class="node"><title>derivation</title>
<a xlink:href="derivation.html" xlink:title="derivation">
<ellipse fill="none" stroke="black" stroke-width="2" cx="276" cy="-19" rx="60.8112" ry="18.3848"/>
<text text-anchor="middle" x="276" y="-15.4" font-family="Times Roman,serif" font-size="14.00">derivation</text>
</a>
</g>
<!-- void&#45;&gt;derivation -->
<g id="edge120" class="edge"><title>void&#45;&gt;derivation</title>
<path fill="none" stroke="black" stroke-width="2" d="M108.152,-525.091C90.0159,-515.442 65.771,-500.441 49,-482 17.5666,-447.436 0,-435.72 0,-389 0,-389 0,-389 0,-167 0,-73.0506 125.742,-38.5007 207.482,-25.9665"/>
<polygon fill="black" stroke="black" points="208.077,-29.4167 217.467,-24.5103 207.067,-22.49 208.077,-29.4167"/>
</g>
<!-- void&#45;&gt;separator -->
<g id="edge126" class="edge"><title>void&#45;&gt;separator</title>
<path fill="none" stroke="black" stroke-dasharray="1,5" d="M139.91,-518.597C147.158,-499.67 159.127,-469.447 171,-444 175.257,-434.877 180.261,-425.101 184.903,-416.359"/>
<polygon fill="black" stroke="black" points="188.09,-417.823 189.746,-407.359 181.925,-414.506 188.09,-417.823"/>
</g>
<!-- flag -->
<g id="node4" class="node"><title>flag</title>
<a xlink:href="flag.html" xlink:title="flag">
<ellipse fill="none" stroke="black" stroke-width="2" cx="314" cy="-167" rx="29.1951" ry="18.3848"/>
<text text-anchor="middle" x="314" y="-163.4" font-family="Times Roman,serif" font-size="14.00">flag</text>
</a>
</g>
<!-- flag&#45;&gt;embedding -->
<g id="edge42" class="edge"><title>flag&#45;&gt;embedding</title>
<path fill="none" stroke="black" stroke-dasharray="1,5" d="M318.881,-185.567C333.592,-241.39 376.752,-404.119 381,-408 446.716,-468.028 490.92,-425.587 578,-444 584.491,-445.373 591.263,-446.882 597.994,-448.432"/>
<polygon fill="black" stroke="black" points="597.255,-451.853 607.789,-450.72 598.848,-445.037 597.255,-451.853"/>
</g>
<!-- flag&#45;&gt;void -->
<g id="edge48" class="edge"><title>flag&#45;&gt;void</title>
<path fill="none" stroke="black" stroke-dasharray="1,5" d="M284.985,-169.059C214.123,-175.821 38,-203.811 38,-315 38,-389 38,-389 38,-389 38,-440.352 79.0045,-488.11 107.135,-514.831"/>
<polygon fill="black" stroke="black" points="104.96,-517.587 114.683,-521.796 109.707,-512.442 104.96,-517.587"/>
</g>
<!-- flag&#45;&gt;identifier -->
<g id="edge46" class="edge"><title>flag&#45;&gt;identifier</title>
<path fill="none" stroke="black" stroke-dasharray="1,5" d="M335.147,-154.173C366.059,-135.616 425.609,-100.593 478,-74 503.583,-61.0144 532.872,-47.7591 556.339,-37.5158"/>
<polygon fill="black" stroke="black" points="557.902,-40.6532 565.682,-33.462 555.116,-34.2315 557.902,-40.6532"/>
</g>
<!-- encoding -->
<g id="node13" class="node"><title>encoding</title>
<a xlink:href="encoding.html" xlink:title="encoding">
<ellipse fill="none" stroke="black" stroke-width="2" cx="542" cy="-93" rx="55.1543" ry="18.3848"/>
<text text-anchor="middle" x="542" y="-89.4" font-family="Times Roman,serif" font-size="14.00">encoding</text>
</a>
</g>
<!-- flag&#45;&gt;encoding -->
<g id="edge44" class="edge"><title>flag&#45;&gt;encoding</title>
<path fill="none" stroke="black" stroke-dasharray="1,5" d="M340.154,-158.511C377.174,-146.496 445.552,-124.303 492.375,-109.106"/>
<polygon fill="black" stroke="black" points="493.589,-112.392 502.02,-105.976 491.428,-105.734 493.589,-112.392"/>
</g>
<!-- flag&#45;&gt;derivation -->
<g id="edge40" class="edge"><title>flag&#45;&gt;derivation</title>
<path fill="none" stroke="black" stroke-width="2" d="M309.264,-148.555C302.75,-123.185 290.965,-77.2864 283.314,-47.4866"/>
<polygon fill="black" stroke="black" points="286.673,-46.4929 280.796,-37.6775 279.893,-48.2338 286.673,-46.4929"/>
</g>
<!-- schema&#45;&gt;flag -->
<g id="edge90" class="edge"><title>schema&#45;&gt;flag</title>
<path fill="none" stroke="black" stroke-width="2" d="M505.114,-229.028C462.293,-215.13 392.145,-192.363 349.794,-178.617"/>
<polygon fill="black" stroke="black" points="350.765,-175.253 340.173,-175.495 348.604,-181.911 350.765,-175.253"/>
</g>
<!-- optionality -->
<g id="node6" class="node"><title>optionality</title>
<a xlink:href="optionality.html" xlink:title="optionality">
<ellipse fill="none" stroke="black" stroke-width="2" cx="531" cy="-537" rx="63.1385" ry="18.3848"/>
<text text-anchor="middle" x="531" y="-533.4" font-family="Times Roman,serif" font-size="14.00">optionality</text>
</a>
</g>
<!-- optionality&#45;&gt;embedding -->
<g id="edge74" class="edge"><title>optionality&#45;&gt;embedding</title>
<path fill="none" stroke="black" stroke-width="2" d="M559.277,-520.393C577.066,-509.946 600.226,-496.344 619.534,-485.004"/>
<polygon fill="black" stroke="black" points="621.531,-487.89 628.382,-479.808 617.986,-481.854 621.531,-487.89"/>
</g>
<!-- optionality&#45;&gt;flag -->
<g id="edge76" class="edge"><title>optionality&#45;&gt;flag</title>
<path fill="none" stroke="black" stroke-dasharray="1,5" d="M503.317,-520.348C472.037,-501.592 419.544,-470.294 374,-444 345.736,-427.683 328.329,-435.002 310,-408 265.771,-342.843 288.731,-243.245 303.997,-195.054"/>
<polygon fill="black" stroke="black" points="307.403,-195.903 307.204,-185.31 300.753,-193.715 307.403,-195.903"/>
</g>
<!-- optionality&#45;&gt;schema -->
<g id="edge78" class="edge"><title>optionality&#45;&gt;schema</title>
<path fill="none" stroke="black" stroke-width="2" d="M535.97,-518.377C542.338,-493.457 553.031,-447.783 557,-408 561.85,-359.385 553.894,-302.734 547.838,-269.48"/>
<polygon fill="black" stroke="black" points="551.256,-268.72 545.957,-259.546 544.378,-270.022 551.256,-268.72"/>
</g>
<!-- size&#45;&gt;embedding -->
<g id="edge116" class="edge"><title>size&#45;&gt;embedding</title>
<path fill="none" stroke="black" stroke-dasharray="1,5" d="M1059.08,-184.111C1045.11,-203.559 1020.73,-235.746 996,-260 919.329,-335.195 898.855,-355.807 805,-408 776.07,-424.088 741.5,-437.237 713.049,-446.639"/>
<polygon fill="black" stroke="black" points="711.697,-443.398 703.26,-449.807 713.852,-450.058 711.697,-443.398"/>
</g>
<!-- size&#45;&gt;prohibition -->
<g id="edge118" class="edge"><title>size&#45;&gt;prohibition</title>
<path fill="none" stroke="black" stroke-dasharray="1,5" d="M1040.09,-168.888C996.905,-172.834 917.568,-184.952 862,-222 837.119,-238.589 817.375,-266.853 805.088,-287.878"/>
<polygon fill="black" stroke="black" points="801.99,-286.246 800.13,-296.676 808.089,-289.682 801.99,-286.246"/>
</g>
<!-- dependence -->
<g id="node8" class="node"><title>dependence</title>
<a xlink:href="dependence.html" xlink:title="dependence">
<ellipse fill="none" stroke="black" stroke-width="2" cx="250" cy="-463" rx="70.0036" ry="18.3848"/>
<text text-anchor="middle" x="250" y="-459.4" font-family="Times Roman,serif" font-size="14.00">dependence</text>
</a>
</g>
<!-- dependence&#45;&gt;sequence -->
<g id="edge18" class="edge"><title>dependence&#45;&gt;sequence</title>
<path fill="none" stroke="black" stroke-dasharray="1,5" d="M261.095,-481.404C275.178,-503.022 301.584,-538.189 334,-556 377.327,-579.806 510.721,-596.64 591.903,-604.995"/>
<polygon fill="black" stroke="black" points="591.72,-608.494 602.022,-606.02 592.426,-601.53 591.72,-608.494"/>
</g>
<!-- dependence&#45;&gt;flag -->
<g id="edge14" class="edge"><title>dependence&#45;&gt;flag</title>
<path fill="none" stroke="black" stroke-dasharray="1,5" d="M195.514,-451.261C172.068,-443.218 146.895,-429.886 133,-408 123.948,-393.742 127.872,-386.091 133,-370 157.49,-293.158 181.24,-279.296 238,-222 251.669,-208.202 269.095,-195.324 283.811,-185.504"/>
<polygon fill="black" stroke="black" points="286.096,-188.193 292.566,-179.803 282.276,-182.327 286.096,-188.193"/>
</g>
<!-- dependence&#45;&gt;separator -->
<g id="edge16" class="edge"><title>dependence&#45;&gt;separator</title>
<path fill="none" stroke="black" stroke-dasharray="1,5" d="M237.64,-444.708C231.751,-435.991 224.591,-425.395 218.104,-415.794"/>
<polygon fill="black" stroke="black" points="220.889,-413.665 212.391,-407.338 215.089,-417.584 220.889,-413.665"/>
</g>
<!-- atomicity -->
<g id="node10" class="node"><title>atomicity</title>
<a xlink:href="atomicity.html" xlink:title="atomicity">
<ellipse fill="none" stroke="black" stroke-width="2" cx="1138" cy="-537" rx="56.0679" ry="18.3848"/>
<text text-anchor="middle" x="1138" y="-533.4" font-family="Times Roman,serif" font-size="14.00">atomicity</text>
</a>
</g>
<!-- atomicity&#45;&gt;embedding -->
<g id="edge2" class="edge"><title>atomicity&#45;&gt;embedding</title>
<path fill="none" stroke="black" stroke-dasharray="1,5" d="M1086.98,-529.151C999.762,-515.733 822.001,-488.385 724.578,-473.397"/>
<polygon fill="black" stroke="black" points="724.96,-469.914 714.544,-471.853 723.896,-476.833 724.96,-469.914"/>
</g>
<!-- atomicity&#45;&gt;size -->
<g id="edge6" class="edge"><title>atomicity&#45;&gt;size</title>
<path fill="none" stroke="black" stroke-dasharray="1,5" d="M1131.97,-518.31C1128.5,-490.235 1128,-435.508 1128,-389 1128,-389 1128,-389 1128,-315 1128,-269.305 1101.43,-222.017 1084.31,-193.552"/>
<polygon fill="black" stroke="black" points="1087.3,-191.737 1079.13,-184.997 1081.31,-195.364 1087.3,-191.737"/>
</g>
<!-- atomicity&#45;&gt;size -->
<g id="edge8" class="edge"><title>atomicity&#45;&gt;size</title>
<path fill="none" stroke="black" stroke-width="2" d="M1143.61,-518.31C1146.5,-490.235 1146,-435.508 1146,-389 1146,-389 1146,-389 1146,-315 1146,-267.577 1117.39,-218.44 1095.27,-190.405"/>
<polygon fill="black" stroke="black" points="1097.72,-187.882 1088.65,-182.408 1092.33,-192.344 1097.72,-187.882"/>
</g>
<!-- atomicity&#45;&gt;encoding -->
<g id="edge4" class="edge"><title>atomicity&#45;&gt;encoding</title>
<path fill="none" stroke="black" stroke-dasharray="1,5" d="M1147.76,-518.419C1161.26,-490.926 1184,-437.432 1184,-389 1184,-389 1184,-389 1184,-241 1184,-188.454 1157.09,-173.23 1111,-148 1067.58,-124.232 746.255,-104.106 606.554,-96.3807"/>
<polygon fill="black" stroke="black" points="606.591,-92.8775 596.414,-95.8241 606.207,-99.867 606.591,-92.8775"/>
</g>
<!-- garbage -->
<g id="node11" class="node"><title>garbage</title>
<a xlink:href="garbage.html" xlink:title="garbage">
<ellipse fill="none" stroke="black" stroke-width="2" cx="659" cy="-315" rx="50.9117" ry="18.3848"/>
<text text-anchor="middle" x="659" y="-311.4" font-family="Times Roman,serif" font-size="14.00">garbage</text>
</a>
</g>
<!-- garbage&#45;&gt;flag -->
<g id="edge50" class="edge"><title>garbage&#45;&gt;flag</title>
<path fill="none" stroke="black" stroke-dasharray="1,5" d="M652.243,-296.377C643.436,-274.887 625.906,-240.18 599,-222 559.367,-195.219 421.784,-177.912 353.321,-170.755"/>
<polygon fill="black" stroke="black" points="353.257,-167.231 342.953,-169.694 352.544,-174.194 353.257,-167.231"/>
</g>
<!-- garbage&#45;&gt;schema -->
<g id="edge54" class="edge"><title>garbage&#45;&gt;schema</title>
<path fill="none" stroke="black" stroke-width="2" d="M633.613,-298.943C616.748,-288.276 594.408,-274.147 576.011,-262.511"/>
<polygon fill="black" stroke="black" points="577.66,-259.413 567.338,-257.026 573.918,-265.329 577.66,-259.413"/>
</g>
<!-- garbage&#45;&gt;identifier -->
<g id="edge52" class="edge"><title>garbage&#45;&gt;identifier</title>
<path fill="none" stroke="black" stroke-dasharray="1,5" d="M655.309,-296.484C645.314,-246.337 617.667,-107.633 605.673,-47.4619"/>
<polygon fill="black" stroke="black" points="609.077,-46.632 603.689,-37.5091 602.212,-48.0004 609.077,-46.632"/>
</g>
<!-- prohibition&#45;&gt;embedding -->
<g id="edge82" class="edge"><title>prohibition&#45;&gt;embedding</title>
<path fill="none" stroke="black" stroke-width="2" d="M774.435,-333.296C750.75,-359.455 707.108,-407.656 680.214,-437.361"/>
<polygon fill="black" stroke="black" points="677.548,-435.09 673.431,-444.852 682.737,-439.788 677.548,-435.09"/>
</g>
<!-- prohibition&#45;&gt;schema -->
<g id="edge86" class="edge"><title>prohibition&#45;&gt;schema</title>
<path fill="none" stroke="black" stroke-dasharray="1,5" d="M744.131,-302.614C699.335,-289.876 632.374,-270.016 587.903,-256.303"/>
<polygon fill="black" stroke="black" points="588.807,-252.919 578.219,-253.303 586.735,-259.605 588.807,-252.919"/>
</g>
<!-- prohibition&#45;&gt;schema -->
<g id="edge88" class="edge"><title>prohibition&#45;&gt;schema</title>
<path fill="none" stroke="black" stroke-width="2" d="M749.295,-300.994C705.786,-287.526 637.771,-267.325 591.557,-254.151"/>
<polygon fill="black" stroke="black" points="592.33,-250.733 581.755,-251.371 590.42,-257.467 592.33,-250.733"/>
</g>
<!-- prohibition&#45;&gt;encoding -->
<g id="edge84" class="edge"><title>prohibition&#45;&gt;encoding</title>
<path fill="none" stroke="black" stroke-dasharray="1,5" d="M771.044,-297.208C726.679,-257.654 619.808,-162.371 569.308,-117.347"/>
<polygon fill="black" stroke="black" points="571.499,-114.611 561.705,-110.568 566.84,-119.836 571.499,-114.611"/>
</g>
<!-- prohibition&#45;&gt;container -->
<g id="edge80" class="edge"><title>prohibition&#45;&gt;container</title>
<path fill="none" stroke="black" stroke-dasharray="1,5" d="M821.285,-298.76C841.556,-287.89 868.42,-273.485 890.248,-261.78"/>
<polygon fill="black" stroke="black" points="892.102,-264.758 899.26,-256.947 888.793,-258.589 892.102,-264.758"/>
</g>
<!-- encoding&#45;&gt;schema -->
<g id="edge28" class="edge"><title>encoding&#45;&gt;schema</title>
<path fill="none" stroke="black" stroke-dasharray="1,5" d="M542,-111.592C542,-136.866 542,-182.319 542,-212.071"/>
<polygon fill="black" stroke="black" points="538.5,-212.256 542,-222.256 545.5,-212.256 538.5,-212.256"/>
</g>
<!-- encoding&#45;&gt;identifier -->
<g id="edge26" class="edge"><title>encoding&#45;&gt;identifier</title>
<path fill="none" stroke="black" stroke-width="2" d="M556.04,-75.0867C563.112,-66.0639 571.818,-54.9559 579.612,-45.0123"/>
<polygon fill="black" stroke="black" points="582.474,-47.0345 585.888,-37.0049 576.965,-42.7163 582.474,-47.0345"/>
</g>
<!-- encoding&#45;&gt;derivation -->
<g id="edge24" class="edge"><title>encoding&#45;&gt;derivation</title>
<path fill="none" stroke="black" stroke-width="2" d="M499.557,-81.1927C453.766,-68.4538 380.702,-48.1275 330.647,-34.2026"/>
<polygon fill="black" stroke="black" points="331.53,-30.8154 320.958,-31.5071 329.654,-37.5593 331.53,-30.8154"/>
</g>
<!-- container&#45;&gt;embedding -->
<g id="edge10" class="edge"><title>container&#45;&gt;embedding</title>
<path fill="none" stroke="black" stroke-width="2" d="M918.915,-259.399C907.307,-279.424 886.756,-311.577 863,-334 813.294,-380.917 744.018,-420.107 699.836,-442.565"/>
<polygon fill="black" stroke="black" points="698.171,-439.485 690.805,-447.1 701.312,-445.74 698.171,-439.485"/>
</g>
<!-- container&#45;&gt;size -->
<g id="edge12" class="edge"><title>container&#45;&gt;size</title>
<path fill="none" stroke="black" stroke-width="2" d="M959.463,-225.125C982.772,-212.978 1014.85,-196.262 1038.62,-183.874"/>
<polygon fill="black" stroke="black" points="1040.36,-186.915 1047.61,-179.19 1037.12,-180.707 1040.36,-186.915"/>
</g>
<!-- etcetera -->
<g id="node16" class="node"><title>etcetera</title>
<a xlink:href="etcetera.html" xlink:title="etcetera">
<ellipse fill="none" stroke="black" stroke-width="2" cx="920" cy="-611" rx="51.8276" ry="18.3848"/>
<text text-anchor="middle" x="920" y="-607.4" font-family="Times Roman,serif" font-size="14.00">etcetera</text>
</a>
</g>
<!-- etcetera&#45;&gt;embedding -->
<g id="edge32" class="edge"><title>etcetera&#45;&gt;embedding</title>
<path fill="none" stroke="black" stroke-width="2" d="M891.854,-595.161C844.504,-568.515 748.854,-514.69 695.386,-484.601"/>
<polygon fill="black" stroke="black" points="696.978,-481.481 686.547,-479.627 693.545,-487.582 696.978,-481.481"/>
</g>
<!-- etcetera&#45;&gt;optionality -->
<g id="edge36" class="edge"><title>etcetera&#45;&gt;optionality</title>
<path fill="none" stroke="black" stroke-dasharray="1,5" d="M872.399,-603.552C811.224,-593.758 701.833,-575.494 609,-556 602.402,-554.614 595.512,-553.074 588.676,-551.487"/>
<polygon fill="black" stroke="black" points="589.277,-548.032 578.74,-549.14 587.668,-554.845 589.277,-548.032"/>
</g>
<!-- etcetera&#45;&gt;garbage -->
<g id="edge34" class="edge"><title>etcetera&#45;&gt;garbage</title>
<path fill="none" stroke="black" stroke-dasharray="1,5" d="M904.066,-592.929C859.458,-542.34 733.22,-399.172 681.511,-340.529"/>
<polygon fill="black" stroke="black" points="683.964,-338.02 674.725,-332.834 678.714,-342.649 683.964,-338.02"/>
</g>
<!-- etcetera&#45;&gt;prohibition -->
<g id="edge38" class="edge"><title>etcetera&#45;&gt;prohibition</title>
<path fill="none" stroke="black" stroke-dasharray="1,5" d="M950.321,-595.734C965.206,-586.462 981.69,-573.097 990,-556 997.383,-540.81 996.015,-533.781 990,-518 958.808,-436.164 875.239,-370.241 826.895,-337.492"/>
<polygon fill="black" stroke="black" points="828.562,-334.396 818.299,-331.766 824.682,-340.223 828.562,-334.396"/>
</g>
<!-- etcetera&#45;&gt;container -->
<g id="edge30" class="edge"><title>etcetera&#45;&gt;container</title>
<path fill="none" stroke="black" stroke-width="2" d="M956.597,-597.586C974.939,-588.783 995.447,-575.276 1006,-556 1032.87,-506.927 1124.82,-571.905 990,-296 983.914,-283.545 973.653,-272.617 963.266,-263.854"/>
<polygon fill="black" stroke="black" points="965.374,-261.059 955.365,-257.585 961.023,-266.542 965.374,-261.059"/>
</g>
<!-- separator&#45;&gt;sequence -->
<g id="edge100" class="edge"><title>separator&#45;&gt;sequence</title>
<path fill="none" stroke="black" stroke-width="2" d="M243.967,-401.132C272.174,-410.798 308.655,-425.721 338,-444 402.732,-484.322 400.748,-520.038 468,-556 508.577,-577.698 558.524,-591.493 596.951,-599.841"/>
<polygon fill="black" stroke="black" points="596.454,-603.313 606.961,-601.95 597.898,-596.463 596.454,-603.313"/>
</g>
<!-- separator&#45;&gt;embedding -->
<g id="edge92" class="edge"><title>separator&#45;&gt;embedding</title>
<path fill="none" stroke="black" stroke-width="2" d="M252.838,-396.851C336.822,-409.973 500.339,-436.413 591.582,-451.592"/>
<polygon fill="black" stroke="black" points="591.092,-455.058 601.531,-453.25 592.242,-448.153 591.092,-455.058"/>
</g>
<!-- separator&#45;&gt;flag -->
<g id="edge94" class="edge"><title>separator&#45;&gt;flag</title>
<path fill="none" stroke="black" stroke-dasharray="1,5" d="M204.3,-370.361C212.249,-338.293 231.292,-271.371 262,-222 269.448,-210.026 279.789,-198.426 289.289,-188.991"/>
<polygon fill="black" stroke="black" points="291.864,-191.371 296.656,-181.922 287.017,-186.32 291.864,-191.371"/>
</g>
<!-- separator&#45;&gt;schema -->
<g id="edge98" class="edge"><title>separator&#45;&gt;schema</title>
<path fill="none" stroke="black" stroke-dasharray="1,5" d="M256.703,-384.533C307.682,-378.615 383.341,-365.01 442,-334 459,-325.013 494.609,-290.073 518.417,-265.679"/>
<polygon fill="black" stroke="black" points="520.942,-268.103 525.393,-258.488 515.918,-263.229 520.942,-268.103"/>
</g>
<!-- separator&#45;&gt;prohibition -->
<g id="edge96" class="edge"><title>separator&#45;&gt;prohibition</title>
<path fill="none" stroke="black" stroke-dasharray="1,5" d="M255.326,-383.192C387.921,-369.266 713.326,-335.043 719,-334 724.483,-332.992 730.162,-331.785 735.816,-330.473"/>
<polygon fill="black" stroke="black" points="737.024,-333.782 745.916,-328.022 735.373,-326.979 737.024,-333.782"/>
</g>
<!-- label -->
<g id="node18" class="node"><title>label</title>
<a xlink:href="label.html" xlink:title="label">
<ellipse fill="none" stroke="black" stroke-width="2" cx="1024" cy="-611" rx="34.1461" ry="18.3848"/>
<text text-anchor="middle" x="1024" y="-607.4" font-family="Times Roman,serif" font-size="14.00">label</text>
</a>
</g>
<!-- graph&#45;&gt;embedding -->
<g id="edge62" class="edge"><title>graph&#45;&gt;embedding</title>
<path fill="none" stroke="black" stroke-dasharray="1,5" d="M657,-518.327C657,-510.264 657,-500.648 657,-491.711"/>
<polygon fill="black" stroke="black" points="660.5,-491.667 657,-481.667 653.5,-491.667 660.5,-491.667"/>
</g>
<!-- graph&#45;&gt;flag -->
<g id="edge64" class="edge"><title>graph&#45;&gt;flag</title>
<path fill="none" stroke="black" stroke-dasharray="1,5" d="M626.483,-525.227C555.4,-497.566 383.409,-429.174 365,-408 312.063,-347.112 309.452,-245.082 311.741,-195.617"/>
<polygon fill="black" stroke="black" points="315.237,-195.796 312.306,-185.614 308.248,-195.401 315.237,-195.796"/>
</g>
<!-- graph&#45;&gt;dependence -->
<g id="edge60" class="edge"><title>graph&#45;&gt;dependence</title>
<path fill="none" stroke="black" stroke-width="2" d="M626.742,-525.256C619.08,-522.587 610.807,-519.964 603,-518 508.978,-494.348 398.167,-479.074 326.123,-470.765"/>
<polygon fill="black" stroke="black" points="326.113,-467.242 315.782,-469.59 325.322,-474.197 326.113,-467.242"/>
</g>
<!-- graph&#45;&gt;container -->
<g id="edge56" class="edge"><title>graph&#45;&gt;container</title>
<path fill="none" stroke="black" stroke-dasharray="1,5" d="M677.852,-521.028C721.994,-490.442 824.445,-419.032 883,-334 896.764,-314.013 906.522,-288.156 914.009,-268.781"/>
<polygon fill="black" stroke="black" points="917.333,-269.894 917.727,-259.306 910.816,-267.337 917.333,-269.894"/>
</g>
<!-- graph&#45;&gt;container -->
<g id="edge58" class="edge"><title>graph&#45;&gt;container</title>
<path fill="none" stroke="black" stroke-width="2" d="M683.993,-523.561C734.073,-494.532 840.763,-421.474 901,-334 914.554,-314.317 924.224,-288.941 928.875,-269.67"/>
<polygon fill="black" stroke="black" points="932.346,-270.168 930.936,-259.667 925.49,-268.755 932.346,-270.168"/>
</g>
<!-- normalization -->
<g id="node20" class="node"><title>normalization</title>
<a xlink:href="normalization.html" xlink:title="normalization">
<ellipse fill="none" stroke="black" stroke-width="2" cx="469" cy="-389" rx="79.196" ry="18.3848"/>
<text text-anchor="middle" x="469" y="-385.4" font-family="Times Roman,serif" font-size="14.00">normalization</text>
</a>
</g>
<!-- normalization&#45;&gt;schema -->
<g id="edge72" class="edge"><title>normalization&#45;&gt;schema</title>
<path fill="none" stroke="black" stroke-dasharray="1,5" d="M478.098,-370.555C490.79,-344.824 513.898,-297.975 528.572,-268.223"/>
<polygon fill="black" stroke="black" points="531.732,-269.729 533.017,-259.213 525.454,-266.633 531.732,-269.729"/>
</g>
<!-- normalization&#45;&gt;garbage -->
<g id="edge70" class="edge"><title>normalization&#45;&gt;garbage</title>
<path fill="none" stroke="black" stroke-dasharray="1,5" d="M509.76,-373.125C540.591,-361.117 582.884,-344.645 614.576,-332.302"/>
<polygon fill="black" stroke="black" points="615.999,-335.504 624.047,-328.613 613.459,-328.981 615.999,-335.504"/>
</g>
<!-- normalization&#45;&gt;encoding -->
<g id="edge68" class="edge"><title>normalization&#45;&gt;encoding</title>
<path fill="none" stroke="black" stroke-width="2" d="M468.859,-370.377C469.046,-339.167 471.257,-274.552 485,-222 494.558,-185.452 513.299,-146.101 526.683,-120.601"/>
<polygon fill="black" stroke="black" points="529.898,-122.011 531.52,-111.541 523.723,-118.714 529.898,-122.011"/>
</g>
<!-- normalization&#45;&gt;derivation -->
<g id="edge66" class="edge"><title>normalization&#45;&gt;derivation</title>
<path fill="none" stroke="black" stroke-dasharray="1,5" d="M407.4,-377.304C338.969,-360.324 238,-321.613 238,-241 238,-241 238,-241 238,-167 238,-124.286 253.033,-76.7546 264.188,-47.3635"/>
<polygon fill="black" stroke="black" points="267.56,-48.3496 267.941,-37.7616 261.041,-45.8013 267.56,-48.3496"/>
</g>
</g>
</svg>
