<?xml version="1.0" standalone="no"?>
<svg xmlns="http://www.w3.org/2000/svg" width="375" height="1125" viewBox="0 0 375 1125">
<g transform="scale(15,15)">
<rect x="1" y="1" width="23" height="73" fill="rgb(16,16,16)"/>
<g fill="rgb(255,255,255)">
<rect x="1" y="3" width="1" height="2"/>
<rect x="3" y="4" width="1" height="1"/>
<rect x="5" y="2" width="1" height="3"/>
<rect x="13" y="1" width="1" height="4"/>
<rect x="3" y="2" width="1" height="1"/>
<rect x="7" y="4" width="1" height="1"/>
<rect x="7" y="1" width="1" height="1"/>
<rect x="9" y="3" width="1" height="2"/>
<rect x="11" y="1" width="1" height="2"/>
<rect x="9" y="1" width="1" height="1"/>
<rect x="11" y="4" width="1" height="1"/>
<rect x="15" y="4" width="1" height="1"/>
<rect x="16" y="3" width="1" height="1"/>
<rect x="19" y="3" width="1" height="1"/>
<rect x="21" y="4" width="1" height="1"/>
<rect x="21" y="2" width="1" height="1"/>
<rect x="22" y="3" width="1" height="1"/>
<rect x="18" y="3" width="1" height="2"/></g>
<g fill="rgb(172,15,198)">
<rect x="10" y="9" width="1" height="2"/>
<rect x="12" y="7" width="1" height="4"/>
<rect x="14" y="6" width="1" height="5"/>
<rect x="13" y="6" width="1" height="1"/>
<rect x="11" y="7" width="1" height="2"/>
<rect x="11" y="10" width="1" height="1"/>
<rect x="13" y="10" width="1" height="1"/></g>
<g fill="rgb(16,206,14)">
<rect x="1" y="12" width="1" height="4"/>
<rect x="2" y="14" width="1" height="2"/>
<rect x="4" y="14" width="1" height="2"/>
<rect x="2" y="12" width="1" height="1"/>
<rect x="3" y="15" width="1" height="1"/>
<rect x="5" y="15" width="1" height="1"/>
<rect x="7" y="12" width="3" height="1"/>
<rect x="8" y="14" width="2" height="2"/>
<rect x="7" y="15" width="1" height="1"/>
<rect x="10" y="15" width="2" height="1"/>
<rect x="13" y="12" width="2" height="1"/>
<rect x="13" y="14" width="2" height="2"/>
<rect x="15" y="15" width="3" height="1"/>
<rect x="15" y="13" width="2" height="1"/>
<rect x="19" y="12" width="1" height="4"/>
<rect x="20" y="14" width="1" height="2"/>
<rect x="22" y="14" width="1" height="2"/>
<rect x="20" y="12" width="1" height="1"/>
<rect x="21" y="15" width="1" height="1"/>
<rect x="23" y="15" width="1" height="1"/>
<rect x="1" y="20" width="5" height="1"/>
<rect x="5" y="19" width="1" height="1"/>
<rect x="4" y="17" width="1" height="1"/>
<rect x="19" y="20" width="5" height="1"/>
<rect x="23" y="19" width="1" height="1"/>
<rect x="22" y="17" width="1" height="1"/>
<rect x="1" y="22" width="1" height="4"/>
<rect x="2" y="24" width="1" height="2"/>
<rect x="4" y="24" width="1" height="2"/>
<rect x="2" y="22" width="1" height="1"/>
<rect x="3" y="25" width="1" height="1"/>
<rect x="5" y="25" width="1" height="1"/>
<rect x="13" y="22" width="3" height="1"/>
<rect x="11" y="25" width="1" height="1"/>
<rect x="7" y="25" width="2" height="1"/>
<rect x="7" y="22" width="2" height="1"/>
<rect x="14" y="24" width="3" height="2"/>
<rect x="19" y="22" width="1" height="4"/>
<rect x="20" y="24" width="1" height="2"/>
<rect x="22" y="24" width="1" height="2"/>
<rect x="20" y="22" width="1" height="1"/>
<rect x="21" y="25" width="1" height="1"/>
<rect x="23" y="25" width="1" height="1"/>
<rect x="9" y="23" width="1" height="3"/>
<rect x="10" y="24" width="1" height="2"/>
<rect x="13" y="25" width="1" height="1"/>
<rect x="17" y="25" width="1" height="1"/>
<rect x="1" y="30" width="5" height="1"/>
<rect x="5" y="29" width="1" height="1"/>
<rect x="4" y="27" width="1" height="1"/>
<rect x="19" y="30" width="5" height="1"/>
<rect x="23" y="29" width="1" height="1"/>
<rect x="22" y="27" width="1" height="1"/></g>
<g fill="rgb(255,255,255)">
<rect x="11" y="27" width="1" height="5"/>
<rect x="11" y="36" width="1" height="1"/>
<rect x="11" y="33" width="1" height="2"/>
<rect x="12" y="27" width="1" height="12"/>
<rect x="11" y="38" width="1" height="4"/>
<rect x="11" y="43" width="1" height="1"/>
<rect x="12" y="40" width="1" height="3"/></g>
<g fill="rgb(14,114,255)">
<rect x="3" y="32" width="1" height="1"/>
<rect x="4" y="33" width="1" height="1"/>
<rect x="5" y="34" width="2" height="1"/>
<rect x="7" y="35" width="2" height="1"/>
<rect x="15" y="36" width="2" height="1"/>
<rect x="17" y="35" width="2" height="1"/>
<rect x="4" y="33" width="1" height="1"/>
<rect x="21" y="32" width="1" height="1"/>
<rect x="20" y="33" width="1" height="1"/>
<rect x="19" y="34" width="1" height="1"/>
<rect x="3" y="40" width="1" height="1"/>
<rect x="4" y="39" width="1" height="1"/>
<rect x="5" y="38" width="2" height="1"/>
<rect x="7" y="37" width="2" height="1"/>
<rect x="4" y="39" width="1" height="1"/>
<rect x="17" y="37" width="2" height="1"/>
<rect x="20" y="39" width="1" height="1"/>
<rect x="19" y="38" width="1" height="1"/>
<rect x="2" y="41" width="1" height="2"/>
<rect x="21" y="40" width="1" height="2"/>
<rect x="17" y="44" width="2" height="1"/>
<rect x="20" y="42" width="1" height="1"/>
<rect x="19" y="43" width="1" height="1"/>
<rect x="15" y="45" width="2" height="1"/>
<rect x="13" y="46" width="2" height="1"/>
<rect x="3" y="43" width="1" height="1"/>
<rect x="4" y="44" width="1" height="1"/>
<rect x="5" y="45" width="2" height="1"/>
<rect x="7" y="46" width="3" height="1"/>
<rect x="4" y="44" width="1" height="1"/></g>
<g fill="rgb(230,7,24)">
<rect x="11" y="46" width="1" height="6"/>
<rect x="10" y="48" width="1" height="8"/>
<rect x="12" y="48" width="1" height="8"/>
<rect x="9" y="48" width="1" height="1"/>
<rect x="8" y="49" width="1" height="1"/>
<rect x="7" y="50" width="1" height="1"/>
<rect x="9" y="55" width="1" height="1"/>
<rect x="13" y="48" width="1" height="1"/>
<rect x="14" y="49" width="1" height="1"/>
<rect x="15" y="50" width="1" height="1"/>
<rect x="13" y="55" width="1" height="1"/></g>
<g fill="rgb(255,255,255)">
<rect x="3" y="51" width="3" height="1"/>
<rect x="1" y="51" width="1" height="1"/></g>
<g fill="rgb(14,114,255)">
<rect x="3" y="46" width="1" height="4"/>
<rect x="3" y="53" width="1" height="3"/></g>
<g fill="rgb(255,255,255)">
<rect x="17" y="49" width="1" height="1"/>
<rect x="18" y="50" width="1" height="5"/>
<rect x="19" y="49" width="1" height="6"/>
<rect x="22" y="49" width="2" height="5"/>
<rect x="21" y="53" width="1" height="1"/>
<rect x="20" y="49" width="1" height="2"/>
<rect x="21" y="50" width="1" height="2"/>
<rect x="20" y="52" width="1" height="2"/></g>
<g fill="rgb(248,255,17)">
<rect x="3" y="57" width="3" height="3"/>
<rect x="7" y="58" width="1" height="1"/>
<rect x="9" y="58" width="1" height="1"/>
<rect x="13" y="58" width="1" height="1"/>
<rect x="23" y="58" width="1" height="1"/>
<rect x="11" y="57" width="1" height="1"/>
<rect x="15" y="58" width="1" height="3"/>
<rect x="17" y="58" width="1" height="3"/>
<rect x="19" y="58" width="1" height="2"/>
<rect x="21" y="58" width="1" height="2"/></g>
<g fill="rgb(14,114,255)">
<rect x="2" y="73" width="4" height="1"/>
<rect x="17" y="73" width="4" height="1"/></g>
<g fill="rgb(255,255,255)">
<rect x="8" y="73" width="5" height="1"/>
<rect x="14" y="73" width="1" height="1"/>
<rect x="8" y="72" width="1" height="1"/>
<rect x="11" y="72" width="1" height="1"/>
<rect x="13" y="72" width="1" height="1"/></g>
<g fill="rgb(172,15,198)">
<rect x="6" y="65" width="1" height="7"/>
<rect x="9" y="61" width="5" height="1"/>
<rect x="7" y="62" width="9" height="1"/>
<rect x="5" y="63" width="3" height="1"/>
<rect x="4" y="64" width="2" height="1"/>
<rect x="3" y="65" width="2" height="1"/>
<rect x="2" y="66" width="2" height="1"/>
<rect x="2" y="67" width="1" height="2"/>
<rect x="15" y="63" width="3" height="1"/>
<rect x="17" y="64" width="2" height="1"/>
<rect x="18" y="65" width="2" height="1"/>
<rect x="19" y="66" width="2" height="1"/>
<rect x="20" y="67" width="1" height="2"/>
<rect x="7" y="66" width="1" height="1"/>
<rect x="8" y="67" width="1" height="1"/>
<rect x="9" y="68" width="1" height="1"/>
<rect x="10" y="69" width="1" height="1"/>
<rect x="11" y="70" width="1" height="1"/>
<rect x="16" y="65" width="1" height="7"/>
<rect x="15" y="66" width="1" height="1"/>
<rect x="14" y="67" width="1" height="1"/>
<rect x="13" y="68" width="1" height="1"/>
<rect x="12" y="69" width="1" height="1"/></g>
<path fill="none" stroke="rgb(0,0,0)" stroke-width="0.1" d="M2,1V74M3,1V74
M4,1V74M5,1V74M6,1V74M7,1V74M8,1V74M9,1V74M10,1V74M11,1V74M12,1V74
M13,1V74M14,1V74M15,1V74M16,1V74M17,1V74M18,1V74M19,1V74M20,1V74
M20,1V74M22,1V74M21,1V74M23,1V74M1,2H24M1,3H24M1,4H24M1,5H24M1,6H24
M1,7H24M1,8H24M1,9H24M1,10H24M1,11H24M1,12H24M1,13H24M1,14H24M1,15H24
M1,16H24M1,17H24M1,18H24M1,19H24M1,20H24M1,21H24M1,22H24M1,23H24
M1,24H24M1,25H24M1,26H24M1,27H24M1,28H24M1,29H24M1,30H24M1,31H24
M1,32H24M1,33H24M1,34H24M1,35H24M1,36H24M1,37H24M1,38H24M1,39H24
M1,40H24M1,41H24M1,42H24M1,43H24M1,44H24M1,45H24M1,46H24M1,47H24
M1,48H24M1,49H24M1,50H24M1,51H24M1,52H24M1,53H24M1,54H24M1,55H24
M1,56H24M1,57H24M1,58H24M1,59H24M1,60H24M1,61H24M1,62H24M1,63H24
M1,64H24M1,65H24M1,66H24M1,67H24M1,68H24M1,69H24M1,70H24M1,71H24
M1,72H24M1,73H24"/></g></svg>
